<svg width="120" height="32" viewBox="0 0 120 32" fill="none" xmlns="http://www.w3.org/2000/svg">
<rect width="120" height="32" fill="white"/>
<path d="M18.66 22.76C18.6867 22.76 18.7 22.8 18.7 22.88C18.7 22.96 18.6867 23 18.66 23H16.08C15.7467 23 15.12 22.4333 14.2 21.3C13.2933 20.1533 12.1867 18.56 10.88 16.52C10.56 16.6133 10.2 16.66 9.8 16.66C9.54667 16.66 9.24667 16.6467 8.9 16.62V21.38C8.9 21.7933 8.94 22.0933 9.02 22.28C9.1 22.4667 9.25333 22.5933 9.48 22.66C9.72 22.7267 10.0933 22.76 10.6 22.76C10.64 22.76 10.66 22.8 10.66 22.88C10.66 22.96 10.64 23 10.6 23C10.1867 23 9.86 22.9933 9.62 22.98L8.24 22.96L6.88 22.98C6.64 22.9933 6.3 23 5.86 23C5.83333 23 5.82 22.96 5.82 22.88C5.82 22.8 5.83333 22.76 5.86 22.76C6.36667 22.76 6.74 22.7267 6.98 22.66C7.22 22.58 7.38667 22.4467 7.48 22.26C7.57333 22.0733 7.62 21.78 7.62 21.38V12.12C7.62 11.72 7.57333 11.4267 7.48 11.24C7.4 11.0533 7.24 10.9267 7 10.86C6.77333 10.78 6.40667 10.74 5.9 10.74C5.86 10.74 5.84 10.7 5.84 10.62C5.84 10.54 5.86 10.5 5.9 10.5L6.88 10.52C7.44 10.5467 7.89333 10.56 8.24 10.56C8.48 10.56 8.70667 10.5533 8.92 10.54C9.13333 10.5267 9.32 10.5133 9.48 10.5C9.90667 10.46 10.2933 10.44 10.64 10.44C11.72 10.44 12.5533 10.66 13.14 11.1C13.7267 11.54 14.02 12.1533 14.02 12.94C14.02 13.58 13.8333 14.1867 13.46 14.76C13.0867 15.32 12.5933 15.7667 11.98 16.1C13.1133 17.7933 14.0667 19.12 14.84 20.08C15.6133 21.0267 16.3 21.7133 16.9 22.14C17.5 22.5533 18.0867 22.76 18.66 22.76ZM8.9 16.12C9.23333 16.1733 9.62667 16.2 10.08 16.2C11 16.2 11.66 16.0067 12.06 15.62C12.46 15.22 12.66 14.56 12.66 13.64C12.66 11.7067 11.8467 10.74 10.22 10.74C9.86 10.74 9.58667 10.7733 9.4 10.84C9.22667 10.8933 9.1 11.02 9.02 11.22C8.94 11.4067 8.9 11.72 8.9 12.16V16.12ZM27.957 20.02C27.957 19.9933 27.9837 19.98 28.037 19.98C28.077 19.98 28.1104 19.9867 28.137 20C28.177 20.0133 28.197 20.0333 28.197 20.06C28.077 20.9 28.017 21.78 28.017 22.7C28.017 22.8067 27.9904 22.8867 27.937 22.94C27.897 22.98 27.817 23 27.697 23H19.317C19.2904 23 19.277 22.96 19.277 22.88C19.277 22.8 19.2904 22.76 19.317 22.76C19.8237 22.76 20.1904 22.7267 20.417 22.66C20.657 22.5933 20.817 22.4667 20.897 22.28C20.9904 22.08 21.037 21.78 21.037 21.38V12.12C21.037 11.72 20.9904 11.4267 20.897 11.24C20.817 11.0533 20.657 10.9267 20.417 10.86C20.1904 10.78 19.8237 10.74 19.317 10.74C19.2904 10.74 19.277 10.7 19.277 10.62C19.277 10.54 19.2904 10.5 19.317 10.5H27.357C27.477 10.5 27.537 10.56 27.537 10.68L27.577 13.14C27.577 13.18 27.5437 13.2067 27.477 13.22C27.4104 13.22 27.3704 13.2 27.357 13.16C27.317 12.4533 27.1037 11.9067 26.717 11.52C26.3304 11.12 25.817 10.92 25.177 10.92H23.957C23.4904 10.92 23.1437 10.96 22.917 11.04C22.7037 11.1067 22.5504 11.2333 22.457 11.42C22.377 11.5933 22.337 11.86 22.337 12.22V16.28H24.777C25.417 16.28 25.8704 16.1733 26.137 15.96C26.417 15.7467 26.557 15.3867 26.557 14.88C26.557 14.8533 26.597 14.84 26.677 14.84C26.757 14.84 26.797 14.8533 26.797 14.88L26.777 16.5C26.777 16.8867 26.7837 17.18 26.797 17.38L26.817 18.34C26.817 18.3667 26.777 18.38 26.697 18.38C26.617 18.38 26.577 18.3667 26.577 18.34C26.577 17.7533 26.4304 17.3333 26.137 17.08C25.857 16.8267 25.3837 16.7 24.717 16.7H22.337V21.3C22.337 21.6733 22.377 21.9467 22.457 22.12C22.537 22.2933 22.6837 22.4133 22.897 22.48C23.1104 22.5467 23.4437 22.58 23.897 22.58H25.497C26.137 22.58 26.6704 22.3533 27.097 21.9C27.5237 21.4467 27.8104 20.82 27.957 20.02ZM45.4392 22.76C45.4792 22.76 45.4992 22.8 45.4992 22.88C45.4992 22.96 45.4792 23 45.4392 23C45.0259 23 44.6992 22.9933 44.4592 22.98L43.0792 22.96L41.7992 22.98C41.5859 22.9933 41.2859 23 40.8992 23C40.8726 23 40.8592 22.96 40.8592 22.88C40.8592 22.8 40.8726 22.76 40.8992 22.76C41.3526 22.76 41.6859 22.7267 41.8992 22.66C42.1259 22.58 42.2726 22.4467 42.3392 22.26C42.4192 22.0733 42.4459 21.78 42.4192 21.38L42.0592 12.28L37.4992 22.86C37.4726 22.9133 37.4192 22.94 37.3392 22.94C37.2726 22.94 37.2126 22.9133 37.1592 22.86L32.2392 12.4L32.0592 20.82C32.0459 21.5267 32.1659 22.0267 32.4192 22.32C32.6726 22.6133 33.1192 22.76 33.7592 22.76C33.7859 22.76 33.7992 22.8 33.7992 22.88C33.7992 22.96 33.7859 23 33.7592 23C33.3859 23 33.0992 22.9933 32.8992 22.98L31.8192 22.96L30.7792 22.98C30.5926 22.9933 30.3259 23 29.9792 23C29.9526 23 29.9392 22.96 29.9392 22.88C29.9392 22.8 29.9526 22.76 29.9792 22.76C30.5392 22.76 30.9392 22.6133 31.1792 22.32C31.4326 22.0133 31.5659 21.5133 31.5792 20.82L31.7592 11.54C31.3592 11.0067 30.8126 10.74 30.1192 10.74C30.0926 10.74 30.0792 10.7 30.0792 10.62C30.0792 10.54 30.0926 10.5 30.1192 10.5L30.8592 10.52C30.9926 10.5333 31.1792 10.54 31.4192 10.54C31.6592 10.54 31.8592 10.5333 32.0192 10.52C32.1926 10.5067 32.3259 10.5 32.4192 10.5C32.5926 10.5 32.7326 10.5667 32.8392 10.7C32.9592 10.82 33.1259 11.1 33.3392 11.54L37.7992 20.94L42.1592 11C42.3059 10.6667 42.5059 10.5 42.7592 10.5C42.8259 10.5 42.9192 10.5067 43.0392 10.52C43.1726 10.5333 43.3459 10.54 43.5592 10.54L44.4992 10.52C44.6459 10.5067 44.8659 10.5 45.1592 10.5C45.1992 10.5 45.2192 10.54 45.2192 10.62C45.2192 10.7 45.1992 10.74 45.1592 10.74C44.4926 10.74 44.0126 10.84 43.7192 11.04C43.4392 11.2267 43.3059 11.5867 43.3192 12.12L43.7192 21.38C43.7326 21.7933 43.7792 22.0933 43.8592 22.28C43.9526 22.4667 44.1126 22.5933 44.3392 22.66C44.5659 22.7267 44.9326 22.76 45.4392 22.76ZM49.898 21.38C49.898 21.78 49.938 22.08 50.018 22.28C50.098 22.4667 50.2513 22.5933 50.478 22.66C50.718 22.7267 51.0913 22.76 51.598 22.76C51.638 22.76 51.658 22.8 51.658 22.88C51.658 22.96 51.638 23 51.598 23C51.198 23 50.878 22.9933 50.638 22.98L49.218 22.96L47.838 22.98C47.598 22.9933 47.2713 23 46.858 23C46.818 23 46.798 22.96 46.798 22.88C46.798 22.8 46.818 22.76 46.858 22.76C47.3646 22.76 47.7313 22.7267 47.958 22.66C48.198 22.5933 48.358 22.4667 48.438 22.28C48.5313 22.08 48.578 21.78 48.578 21.38V12.12C48.578 11.72 48.5313 11.4267 48.438 11.24C48.358 11.0533 48.198 10.9267 47.958 10.86C47.7313 10.78 47.3646 10.74 46.858 10.74C46.818 10.74 46.798 10.7 46.798 10.62C46.798 10.54 46.818 10.5 46.858 10.5L47.838 10.52C48.398 10.5467 48.858 10.56 49.218 10.56C49.618 10.56 50.098 10.5467 50.658 10.52L51.598 10.5C51.638 10.5 51.658 10.54 51.658 10.62C51.658 10.7 51.638 10.74 51.598 10.74C51.1046 10.74 50.738 10.78 50.498 10.86C50.2713 10.94 50.1113 11.08 50.018 11.28C49.938 11.4667 49.898 11.76 49.898 12.16V21.38ZM66.6386 10.5C66.6786 10.5 66.6986 10.54 66.6986 10.62C66.6986 10.7 66.6786 10.74 66.6386 10.74C66.0786 10.74 65.6719 10.8933 65.4186 11.2C65.1653 11.5067 65.0386 12.0067 65.0386 12.7V23.24C65.0386 23.2667 65.0053 23.2867 64.9386 23.3C64.8719 23.3133 64.8253 23.3067 64.7986 23.28L55.5986 12.14L55.4186 11.94V20.82C55.4186 21.5133 55.5386 22.0133 55.7786 22.32C56.0319 22.6133 56.4319 22.76 56.9786 22.76C57.0186 22.76 57.0386 22.8 57.0386 22.88C57.0386 22.96 57.0186 23 56.9786 23C56.6453 23 56.3919 22.9933 56.2186 22.98L55.2186 22.96L54.1986 22.98C54.0119 22.9933 53.7386 23 53.3786 23C53.3519 23 53.3386 22.96 53.3386 22.88C53.3386 22.8 53.3519 22.76 53.3786 22.76C53.9519 22.76 54.3586 22.6133 54.5986 22.32C54.8386 22.0133 54.9586 21.5133 54.9586 20.82V11.46C54.4386 10.98 53.9119 10.74 53.3786 10.74C53.3386 10.74 53.3186 10.7 53.3186 10.62C53.3186 10.54 53.3386 10.5 53.3786 10.5L54.1186 10.52C54.2786 10.5333 54.4986 10.54 54.7786 10.54C55.0719 10.54 55.3119 10.5333 55.4986 10.52C55.6853 10.5067 55.8319 10.5 55.9386 10.5C56.0453 10.5 56.1186 10.5267 56.1586 10.58C56.2119 10.62 56.2919 10.72 56.3986 10.88C56.5586 11.12 56.7186 11.34 56.8786 11.54L64.5786 21V12.7C64.5786 12.0067 64.4586 11.5067 64.2186 11.2C63.9919 10.8933 63.6053 10.74 63.0586 10.74C63.0319 10.74 63.0186 10.7 63.0186 10.62C63.0186 10.54 63.0319 10.5 63.0586 10.5L63.8386 10.52C64.2386 10.5467 64.5653 10.56 64.8186 10.56C65.0586 10.56 65.3919 10.5467 65.8186 10.52L66.6386 10.5ZM73.1498 23.08C72.7632 23.08 72.3165 23.06 71.8098 23.02C71.6232 23.0067 71.3832 22.9933 71.0898 22.98C70.8098 22.9667 70.4965 22.96 70.1498 22.96L68.7898 22.98C68.5498 22.9933 68.2165 23 67.7898 23C67.7632 23 67.7498 22.96 67.7498 22.88C67.7498 22.8 67.7632 22.76 67.7898 22.76C68.2965 22.76 68.6632 22.7267 68.8898 22.66C69.1298 22.5933 69.2898 22.4667 69.3698 22.28C69.4632 22.08 69.5098 21.78 69.5098 21.38V12.12C69.5098 11.72 69.4698 11.4267 69.3898 11.24C69.3098 11.0533 69.1498 10.9267 68.9098 10.86C68.6832 10.78 68.3165 10.74 67.8098 10.74C67.7832 10.74 67.7698 10.7 67.7698 10.62C67.7698 10.54 67.7832 10.5 67.8098 10.5L68.8098 10.52C69.3698 10.5467 69.8165 10.56 70.1498 10.56C70.6565 10.56 71.1565 10.54 71.6498 10.5C72.2365 10.4733 72.6432 10.46 72.8698 10.46C74.2565 10.46 75.4832 10.7267 76.5498 11.26C77.6165 11.7933 78.4432 12.52 79.0298 13.44C79.6298 14.36 79.9298 15.3933 79.9298 16.54C79.9298 17.8333 79.6232 18.98 79.0098 19.98C78.4098 20.9667 77.5898 21.7333 76.5498 22.28C75.5098 22.8133 74.3765 23.08 73.1498 23.08ZM72.9498 22.78C74.0165 22.78 74.9632 22.56 75.7898 22.12C76.6165 21.6667 77.2565 21.0067 77.7098 20.14C78.1765 19.26 78.4098 18.2067 78.4098 16.98C78.4098 15.82 78.1898 14.7667 77.7498 13.82C77.3098 12.8733 76.6832 12.1267 75.8698 11.58C75.0565 11.0333 74.1165 10.76 73.0498 10.76C72.4765 10.76 72.0298 10.7933 71.7098 10.86C71.4032 10.9267 71.1765 11.06 71.0298 11.26C70.8832 11.46 70.8098 11.76 70.8098 12.16V21.16C70.8098 21.56 70.8632 21.8733 70.9698 22.1C71.0898 22.3267 71.3032 22.5 71.6098 22.62C71.9298 22.7267 72.3765 22.78 72.9498 22.78ZM101.845 22.76C101.885 22.76 101.905 22.8 101.905 22.88C101.905 22.96 101.885 23 101.845 23C101.432 23 101.105 22.9933 100.865 22.98L99.4855 22.96L98.2055 22.98C97.9921 22.9933 97.6921 23 97.3055 23C97.2788 23 97.2655 22.96 97.2655 22.88C97.2655 22.8 97.2788 22.76 97.3055 22.76C97.7588 22.76 98.0921 22.7267 98.3055 22.66C98.5321 22.58 98.6788 22.4467 98.7455 22.26C98.8255 22.0733 98.8521 21.78 98.8255 21.38L98.4655 12.28L93.9055 22.86C93.8788 22.9133 93.8255 22.94 93.7455 22.94C93.6788 22.94 93.6188 22.9133 93.5655 22.86L88.6455 12.4L88.4655 20.82C88.4521 21.5267 88.5721 22.0267 88.8255 22.32C89.0788 22.6133 89.5255 22.76 90.1655 22.76C90.1921 22.76 90.2055 22.8 90.2055 22.88C90.2055 22.96 90.1921 23 90.1655 23C89.7921 23 89.5055 22.9933 89.3055 22.98L88.2255 22.96L87.1855 22.98C86.9988 22.9933 86.7321 23 86.3855 23C86.3588 23 86.3455 22.96 86.3455 22.88C86.3455 22.8 86.3588 22.76 86.3855 22.76C86.9455 22.76 87.3455 22.6133 87.5855 22.32C87.8388 22.0133 87.9721 21.5133 87.9855 20.82L88.1655 11.54C87.7655 11.0067 87.2188 10.74 86.5255 10.74C86.4988 10.74 86.4855 10.7 86.4855 10.62C86.4855 10.54 86.4988 10.5 86.5255 10.5L87.2655 10.52C87.3988 10.5333 87.5855 10.54 87.8255 10.54C88.0655 10.54 88.2655 10.5333 88.4255 10.52C88.5988 10.5067 88.7321 10.5 88.8255 10.5C88.9988 10.5 89.1388 10.5667 89.2455 10.7C89.3655 10.82 89.5321 11.1 89.7455 11.54L94.2055 20.94L98.5655 11C98.7121 10.6667 98.9121 10.5 99.1655 10.5C99.2321 10.5 99.3255 10.5067 99.4455 10.52C99.5788 10.5333 99.7521 10.54 99.9655 10.54L100.905 10.52C101.052 10.5067 101.272 10.5 101.565 10.5C101.605 10.5 101.625 10.54 101.625 10.62C101.625 10.7 101.605 10.74 101.565 10.74C100.899 10.74 100.419 10.84 100.125 11.04C99.8455 11.2267 99.7121 11.5867 99.7255 12.12L100.125 21.38C100.139 21.7933 100.185 22.0933 100.265 22.28C100.359 22.4667 100.519 22.5933 100.745 22.66C100.972 22.7267 101.339 22.76 101.845 22.76ZM111.824 20.02C111.824 19.9933 111.851 19.98 111.904 19.98C111.944 19.98 111.978 19.9867 112.004 20C112.044 20.0133 112.064 20.0333 112.064 20.06C111.944 20.9 111.884 21.78 111.884 22.7C111.884 22.8067 111.858 22.8867 111.804 22.94C111.764 22.98 111.684 23 111.564 23H103.184C103.158 23 103.144 22.96 103.144 22.88C103.144 22.8 103.158 22.76 103.184 22.76C103.691 22.76 104.058 22.7267 104.284 22.66C104.524 22.5933 104.684 22.4667 104.764 22.28C104.858 22.08 104.904 21.78 104.904 21.38V12.12C104.904 11.72 104.858 11.4267 104.764 11.24C104.684 11.0533 104.524 10.9267 104.284 10.86C104.058 10.78 103.691 10.74 103.184 10.74C103.158 10.74 103.144 10.7 103.144 10.62C103.144 10.54 103.158 10.5 103.184 10.5H111.224C111.344 10.5 111.404 10.56 111.404 10.68L111.444 13.14C111.444 13.18 111.411 13.2067 111.344 13.22C111.278 13.22 111.238 13.2 111.224 13.16C111.184 12.4533 110.971 11.9067 110.584 11.52C110.198 11.12 109.684 10.92 109.044 10.92H107.824C107.358 10.92 107.011 10.96 106.784 11.04C106.571 11.1067 106.418 11.2333 106.324 11.42C106.244 11.5933 106.204 11.86 106.204 12.22V16.28H108.644C109.284 16.28 109.738 16.1733 110.004 15.96C110.284 15.7467 110.424 15.3867 110.424 14.88C110.424 14.8533 110.464 14.84 110.544 14.84C110.624 14.84 110.664 14.8533 110.664 14.88L110.644 16.5C110.644 16.8867 110.651 17.18 110.664 17.38L110.684 18.34C110.684 18.3667 110.644 18.38 110.564 18.38C110.484 18.38 110.444 18.3667 110.444 18.34C110.444 17.7533 110.298 17.3333 110.004 17.08C109.724 16.8267 109.251 16.7 108.584 16.7H106.204V21.3C106.204 21.6733 106.244 21.9467 106.324 22.12C106.404 22.2933 106.551 22.4133 106.764 22.48C106.978 22.5467 107.311 22.58 107.764 22.58H109.364C110.004 22.58 110.538 22.3533 110.964 21.9C111.391 21.4467 111.678 20.82 111.824 20.02Z" fill="black"/>
</svg>
