<svg width="40" height="40" viewBox="0 0 40 40" fill="none" xmlns="http://www.w3.org/2000/svg">
<g clip-path="url(#clip0_14_18)">
<rect width="40" height="40" fill="#E5261F"/>
<path d="M17.758 27.688C17.7927 27.688 17.81 27.74 17.81 27.844C17.81 27.948 17.7927 28 17.758 28H14.404C13.9707 28 13.156 27.2633 11.96 25.79C10.7813 24.2993 9.34267 22.228 7.644 19.576C7.228 19.6973 6.76 19.758 6.24 19.758C5.91067 19.758 5.52067 19.7407 5.07 19.706V25.894C5.07 26.4313 5.122 26.8213 5.226 27.064C5.33 27.3067 5.52933 27.4713 5.824 27.558C6.136 27.6447 6.62133 27.688 7.28 27.688C7.332 27.688 7.358 27.74 7.358 27.844C7.358 27.948 7.332 28 7.28 28C6.74267 28 6.318 27.9913 6.006 27.974L4.212 27.948L2.444 27.974C2.132 27.9913 1.69 28 1.118 28C1.08333 28 1.066 27.948 1.066 27.844C1.066 27.74 1.08333 27.688 1.118 27.688C1.77667 27.688 2.262 27.6447 2.574 27.558C2.886 27.454 3.10267 27.2807 3.224 27.038C3.34533 26.7953 3.406 26.414 3.406 25.894V13.856C3.406 13.336 3.34533 12.9547 3.224 12.712C3.12 12.4693 2.912 12.3047 2.6 12.218C2.30533 12.114 1.82867 12.062 1.17 12.062C1.118 12.062 1.092 12.01 1.092 11.906C1.092 11.802 1.118 11.75 1.17 11.75L2.444 11.776C3.172 11.8107 3.76133 11.828 4.212 11.828C4.524 11.828 4.81867 11.8193 5.096 11.802C5.37333 11.7847 5.616 11.7673 5.824 11.75C6.37867 11.698 6.88133 11.672 7.332 11.672C8.736 11.672 9.81933 11.958 10.582 12.53C11.3447 13.102 11.726 13.8993 11.726 14.922C11.726 15.754 11.4833 16.5427 10.998 17.288C10.5127 18.016 9.87133 18.5967 9.074 19.03C10.5473 21.2313 11.7867 22.956 12.792 24.204C13.7973 25.4347 14.69 26.3273 15.47 26.882C16.25 27.4193 17.0127 27.688 17.758 27.688ZM5.07 19.056C5.50333 19.1253 6.01467 19.16 6.604 19.16C7.8 19.16 8.658 18.9087 9.178 18.406C9.698 17.886 9.958 17.028 9.958 15.832C9.958 13.3187 8.90067 12.062 6.786 12.062C6.318 12.062 5.96267 12.1053 5.72 12.192C5.49467 12.2613 5.33 12.426 5.226 12.686C5.122 12.9287 5.07 13.336 5.07 13.908V19.056ZM38.6061 27.688C38.6581 27.688 38.6841 27.74 38.6841 27.844C38.6841 27.948 38.6581 28 38.6061 28C38.0688 28 37.6441 27.9913 37.3321 27.974L35.5381 27.948L33.8741 27.974C33.5968 27.9913 33.2068 28 32.7041 28C32.6695 28 32.6521 27.948 32.6521 27.844C32.6521 27.74 32.6695 27.688 32.7041 27.688C33.2935 27.688 33.7268 27.6447 34.0041 27.558C34.2988 27.454 34.4895 27.2807 34.5761 27.038C34.6801 26.7953 34.7148 26.414 34.6801 25.894L34.2121 14.064L28.2841 27.818C28.2495 27.8873 28.1801 27.922 28.0761 27.922C27.9895 27.922 27.9115 27.8873 27.8421 27.818L21.4461 14.22L21.2121 25.166C21.1948 26.0847 21.3508 26.7347 21.6801 27.116C22.0095 27.4973 22.5901 27.688 23.4221 27.688C23.4568 27.688 23.4741 27.74 23.4741 27.844C23.4741 27.948 23.4568 28 23.4221 28C22.9368 28 22.5641 27.9913 22.3041 27.974L20.9001 27.948L19.5481 27.974C19.3055 27.9913 18.9588 28 18.5081 28C18.4735 28 18.4561 27.948 18.4561 27.844C18.4561 27.74 18.4735 27.688 18.5081 27.688C19.2361 27.688 19.7561 27.4973 20.0681 27.116C20.3975 26.7173 20.5708 26.0673 20.5881 25.166L20.8221 13.102C20.3021 12.4087 19.5915 12.062 18.6901 12.062C18.6555 12.062 18.6381 12.01 18.6381 11.906C18.6381 11.802 18.6555 11.75 18.6901 11.75L19.6521 11.776C19.8255 11.7933 20.0681 11.802 20.3801 11.802C20.6921 11.802 20.9521 11.7933 21.1601 11.776C21.3855 11.7587 21.5588 11.75 21.6801 11.75C21.9055 11.75 22.0875 11.8367 22.2261 12.01C22.3821 12.166 22.5988 12.53 22.8761 13.102L28.6741 25.322L34.3421 12.4C34.5328 11.9667 34.7928 11.75 35.1221 11.75C35.2088 11.75 35.3301 11.7587 35.4861 11.776C35.6595 11.7933 35.8848 11.802 36.1621 11.802L37.3841 11.776C37.5748 11.7587 37.8608 11.75 38.2421 11.75C38.2941 11.75 38.3201 11.802 38.3201 11.906C38.3201 12.01 38.2941 12.062 38.2421 12.062C37.3755 12.062 36.7515 12.192 36.3701 12.452C36.0061 12.6947 35.8328 13.1627 35.8501 13.856L36.3701 25.894C36.3875 26.4313 36.4481 26.8213 36.5521 27.064C36.6735 27.3067 36.8815 27.4713 37.1761 27.558C37.4708 27.6447 37.9475 27.688 38.6061 27.688Z" fill="white"/>
</g>
<defs>
<clipPath id="clip0_14_18">
<rect width="40" height="40" fill="white"/>
</clipPath>
</defs>
</svg>
